<?xml version="1.0" standalone="no"?>
<!DOCTYPE svg PUBLIC "-//W3C//DTD SVG 20010904//EN"
 "http://www.w3.org/TR/2001/REC-SVG-20010904/DTD/svg10.dtd">
<svg version="1.0" xmlns="http://www.w3.org/2000/svg"
 width="900.000000pt" height="900.000000pt" viewBox="0 0 900.000000 900.000000"
 preserveAspectRatio="xMidYMid meet">
<metadata>
Created by potrace 1.11, written by Peter Selinger 2001-2013
</metadata>
<g transform="translate(0.000000,900.000000) scale(0.100000,-0.100000)"
fill="#000000" stroke="none">
<path d="M4165 8974 c-1123 -89 -2127 -545 -2900 -1319 -662 -661 -1084 -1494
-1219 -2400 -43 -285 -46 -376 -46 -1276 0 -478 4 -869 8 -869 5 0 59 18 121
40 61 22 115 40 120 40 4 0 48 -46 96 -102 431 -493 1095 -982 1695 -1249 52
-23 96 -43 98 -44 7 -6 -264 -485 -274 -485 -22 0 -337 143 -503 228 -477 244
-928 547 -1278 859 l-83 74 0 -304 0 -304 153 -105 c219 -152 433 -284 672
-416 158 -87 558 -280 710 -343 72 -29 131 -54 133 -55 6 -3 -419 -764 -427
-764 -4 0 -93 42 -197 93 -305 151 -636 340 -914 523 -58 38 -111 73 -117 77
-10 6 -13 -83 -13 -433 l0 -440 1059 0 1060 0 7 23 c10 33 256 661 260 666 2
2 88 -17 192 -43 292 -75 581 -133 830 -166 68 -10 92 -17 92 -27 0 -13 -64
-377 -75 -430 l-5 -23 433 0 434 0 7 92 c3 50 6 142 6 205 l0 113 228 0 c697
1 1410 124 2137 369 99 33 180 59 181 58 16 -23 353 -792 349 -796 -4 -3 -32
-14 -63 -23 -54 -16 -10 -16 906 -17 l962 -1 0 446 0 446 -22 -14 c-90 -59
-298 -184 -446 -269 -183 -105 -592 -319 -608 -319 -5 0 -41 56 -80 123 -40
67 -146 247 -237 399 l-165 277 136 66 c172 83 385 198 577 310 170 99 589
375 743 489 l102 76 0 272 0 272 -27 -25 c-16 -14 -70 -65 -122 -113 -326
-305 -736 -602 -1141 -828 -160 -89 -417 -218 -435 -218 -12 0 -330 524 -330
542 0 5 77 43 170 86 201 92 382 192 557 308 351 232 643 525 808 811 l40 71
103 -40 c56 -22 164 -64 240 -93 l138 -54 -4 1012 c-3 973 -4 1018 -25 1157
-78 526 -197 913 -416 1350 -160 319 -306 537 -563 841 -420 499 -1011 942
-1597 1200 -451 198 -863 311 -1366 375 -120 15 -738 28 -865 18z m1512 -2465
c223 -30 462 -132 653 -276 53 -40 200 -183 200 -195 0 -4 16 -29 37 -55 31
-41 85 -146 106 -204 5 -16 11 -15 74 2 139 37 278 92 443 172 47 23 88 44 93
45 14 7 7 -30 -17 -81 -27 -59 -154 -199 -218 -243 -24 -15 -59 -43 -79 -60
-20 -17 -71 -49 -113 -69 -42 -21 -76 -41 -76 -45 0 -12 128 -157 155 -177 14
-10 51 -37 81 -60 31 -24 61 -43 66 -43 5 0 28 -9 51 -21 23 -11 66 -24 96
-29 29 -5 56 -12 59 -15 19 -19 -126 -121 -200 -141 -108 -28 -255 -28 -353 1
-18 5 -22 -3 -44 -86 -46 -180 -220 -609 -306 -754 -47 -79 -142 -215 -233
-330 -72 -92 -295 -311 -410 -403 -105 -83 -296 -216 -387 -267 -164 -92 -215
-119 -314 -165 -464 -211 -936 -333 -1546 -397 -136 -14 -259 -18 -618 -18
l-447 0 65 -24 65 -24 -19 -31 c-10 -17 -76 -135 -146 -262 l-127 -232 -91 38
c-501 205 -870 440 -1205 765 -140 135 -227 236 -331 379 -52 72 -68 102 -59
107 7 3 63 23 123 44 61 20 119 41 130 46 59 26 295 105 295 99 0 -17 292
-309 380 -380 114 -93 286 -211 411 -284 l91 -54 67 23 c369 126 742 331 1052
575 57 46 181 159 274 253 l170 170 -103 23 c-236 53 -443 126 -633 222 -104
53 -152 82 -308 188 -117 78 -348 309 -420 419 -14 22 -33 48 -42 58 -9 9 -22
30 -30 45 -8 15 -25 43 -37 62 -39 58 -126 238 -165 340 -107 282 -163 574
-173 910 -5 165 5 362 20 377 4 4 48 -34 99 -83 603 -591 1300 -968 2057
-1112 124 -24 371 -55 400 -50 16 2 30 32 74 158 53 155 121 326 136 345 4 6
23 39 41 75 88 174 234 364 378 493 60 53 108 84 226 143 128 64 164 78 235
89 107 16 246 18 347 4z m2388 -3126 c121 -46 224 -88 228 -92 12 -12 -106
-163 -223 -285 -95 -98 -155 -151 -335 -296 -119 -96 -336 -237 -515 -334
-143 -78 -400 -198 -417 -194 -7 2 -77 111 -156 242 l-142 239 270 137 c309
156 486 257 666 376 136 91 300 222 339 272 18 22 31 29 45 25 11 -3 119 -44
240 -90z m-1912 -1008 c44 -99 100 -222 124 -274 24 -52 40 -97 36 -101 -4 -5
-53 -20 -108 -35 -55 -15 -113 -31 -130 -36 -81 -26 -392 -92 -575 -123 -313
-53 -619 -84 -1007 -102 l-143 -7 0 49 c0 70 20 577 23 580 1 1 92 7 202 13
344 20 661 54 935 102 139 24 511 106 519 115 3 2 14 4 24 2 14 -2 40 -49 100
-183z m-2723 -15 c91 -10 220 -22 288 -26 106 -6 122 -9 118 -23 -3 -9 -14
-68 -25 -131 -61 -339 -83 -455 -86 -459 -5 -4 -213 15 -325 30 -175 24 -314
48 -467 81 l-93 20 13 31 c7 18 57 145 111 283 l98 250 102 -18 c55 -10 175
-27 266 -38z m3132 -893 c69 -155 128 -288 130 -296 4 -18 -194 -84 -457 -151
-414 -106 -810 -169 -1259 -200 -155 -11 -644 -15 -653 -6 -6 6 13 566 20 572
3 3 60 9 128 15 435 33 1014 116 1334 190 170 40 440 109 520 133 44 14 87 25
95 25 10 1 56 -90 142 -282z m-3662 69 c225 -57 504 -106 693 -122 l78 -7 -6
-41 c-4 -23 -15 -84 -25 -136 -9 -52 -28 -157 -41 -232 -19 -113 -26 -137 -39
-133 -8 2 -67 11 -130 20 -219 30 -486 83 -730 147 -85 22 -157 42 -159 43 -2
2 25 75 58 161 34 86 78 199 98 251 28 72 39 92 52 89 9 -3 77 -21 151 -40z"/>
</g>
</svg>
